HIERARCHY
ROOT Hips
{
	OFFSET -32.860001 56.121803 44.745396
	CHANNELS 6 Xposition Yposition Zposition Zrotation Xrotation Yrotation
	JOINT Chest
	{
		OFFSET -0.637402 0.831600 5.390099
		CHANNELS 6 Xposition Yposition Zposition Zrotation Xrotation Yrotation
		JOINT Chest2
		{
			OFFSET 0.000000 0.000000 4.429901
			CHANNELS 6 Xposition Yposition Zposition Zrotation Xrotation Yrotation
			JOINT Neck
			{
				OFFSET 0.000000 0.000000 10.301395
				CHANNELS 6 Xposition Yposition Zposition Zrotation Xrotation Yrotation
				JOINT Head
				{
					OFFSET 0.000000 0.000000 2.173897
					CHANNELS 6 Xposition Yposition Zposition Zrotation Xrotation Yrotation
					End Site
					{
						OFFSET 0.000000 0.000000 8.298004
					}
				}
			}
			JOINT LeftCollar
			{
				OFFSET 2.142401 -0.572701 5.717800
				CHANNELS 6 Xposition Yposition Zposition Zrotation Xrotation Yrotation
				JOINT LeftShoulder
				{
					OFFSET 5.674000 0.000000 0.000000
					CHANNELS 6 Xposition Yposition Zposition Zrotation Xrotation Yrotation
					JOINT LeftElbow
					{
						OFFSET 0.000000 0.000000 -12.238701
						CHANNELS 6 Xposition Yposition Zposition Zrotation Xrotation Yrotation
						JOINT LeftWrist
						{
							OFFSET 0.000000 0.000000 -10.253700
							CHANNELS 6 Xposition Yposition Zposition Zrotation Xrotation Yrotation
							End Site
							{
								OFFSET 0.000000 0.000000 -2.173901
							}
						}
					}
				}
			}
			JOINT RightCollar
			{
				OFFSET -2.882599 -1.580101 6.695801
				CHANNELS 6 Xposition Yposition Zposition Zrotation Xrotation Yrotation
				JOINT RightShoulder
				{
					OFFSET -4.235600 0.000000 0.000000
					CHANNELS 6 Xposition Yposition Zposition Zrotation Xrotation Yrotation
					JOINT RightElbow
					{
						OFFSET 0.000000 0.000000 -10.709900
						CHANNELS 6 Xposition Yposition Zposition Zrotation Xrotation Yrotation
						JOINT RightWrist
						{
							OFFSET 0.000000 0.000000 -11.716801
							CHANNELS 6 Xposition Yposition Zposition Zrotation Xrotation Yrotation
							End Site
							{
								OFFSET 0.000000 0.000000 -2.173901
							}
						}
					}
				}
			}
		}
	}
	JOINT LeftHip
	{
		OFFSET 2.279499 0.210400 -2.475502
		CHANNELS 6 Xposition Yposition Zposition Zrotation Xrotation Yrotation
		JOINT LeftKnee
		{
			OFFSET 0.000000 -0.000004 -20.742800
			CHANNELS 6 Xposition Yposition Zposition Zrotation Xrotation Yrotation
			JOINT LeftAnkle
			{
				OFFSET 0.000000 0.000000 -16.666000
				CHANNELS 6 Xposition Yposition Zposition Zrotation Xrotation Yrotation
				End Site
				{
					OFFSET 0.000000 -8.310898 0.000000
				}
			}
		}
	}
	JOINT RightHip
	{
		OFFSET -1.961899 0.232300 -2.727402
		CHANNELS 6 Xposition Yposition Zposition Zrotation Xrotation Yrotation
		JOINT RightKnee
		{
			OFFSET 0.000000 -0.000004 -20.526800
			CHANNELS 6 Xposition Yposition Zposition Zrotation Xrotation Yrotation
			JOINT RightAnkle
			{
				OFFSET 0.000000 0.000000 -16.867300
				CHANNELS 6 Xposition Yposition Zposition Zrotation Xrotation Yrotation
				End Site
				{
					OFFSET 0.000000 -7.186401 0.000000
				}
			}
		}
	}
}
MOTION
Frames: 6
Frame Time: 0.041667
46.427307 27.268497 24.743389 1070.669746 26.316012 -24.344461 -0.637405 0.831593 5.390097 21.007193 0.930787 -4.038506 -0.000006 0.000001 4.429900 -22.419862 -3.611500 -1.860847 -0.000003 -0.000003 10.301396 320.275930 6.840948 6.987465 0.000002 -0.000003 2.173903 -361.010714 -0.394540 -3.433583 2.142395 -0.572703 5.717797 -14.675206 0.982459 0.059971 5.673991 0.000001 0.000010 99.995021 -137.961570 126.094977 0.000003 0.000003 -12.238701 -628.636951 25.063770 -293.737859 0.000006 -0.000004 -10.253702 700.049311 -176.310952 181.589253 -2.882609 -1.580099 6.695792 27.940187 17.126585 -1.124281 -4.235607 0.000002 0.000002 -123.990022 197.465058 -129.211511 -0.000006 0.000008 -10.709906 131.712658 -143.723272 122.428709 0.000000 0.000011 -11.716805 1.477998 7.332739 29.338316 2.279497 0.210401 -2.475507 520.097540 -3.882497 84.571416 -0.000004 -0.000007 -20.742805 -175.587498 -17.839131 92.966258 -0.000003 -0.000004 -16.665998 68.356219 20.169065 50.396585 -1.961896 0.232297 -2.727410 -895.515282 -5.350216 -132.358179 0.000005 -0.000005 -20.526798 1065.016863 162.480338 -288.345452 -0.000000 -0.000002 -16.867298 -393.255354 26.163079 -29.831172
46.256119 27.351398 24.730892 1070.749304 26.569070 -24.703444 -0.637409 0.831594 5.390098 21.232336 1.047775 -4.139403 -0.000004 0.000002 4.429896 -22.636208 -3.628458 -1.868337 0.000006 -0.000002 10.301394 320.212737 6.662931 6.897170 0.000003 0.000004 2.173899 -360.797667 -0.634927 -3.471431 2.142403 -0.572699 5.717801 -14.141084 0.743321 -0.943867 5.673995 0.000009 0.000000 97.956189 -137.628353 124.535440 0.000001 -0.000001 -12.238703 -627.849457 26.012577 -294.959288 0.000009 -0.000001 -10.253699 699.057567 -176.201669 181.405958 -2.882599 -1.580092 6.695802 27.561558 16.564512 -0.636452 -4.235607 -0.000008 -0.000004 -123.975365 197.298716 -129.542788 -0.000002 0.000001 -10.709906 131.472235 -144.157973 121.928739 0.000012 0.000005 -11.716805 1.815859 7.278712 29.243387 2.279487 0.210395 -2.475504 520.058253 -3.945207 84.252665 -0.000009 -0.000001 -20.742802 -175.353537 -17.407838 92.563263 -0.000006 -0.000004 -16.666000 67.955512 20.194883 50.379141 -1.961902 0.232292 -2.727402 -895.572765 -5.243457 -132.730301 0.000002 -0.000011 -20.526808 1064.782888 162.439329 -288.663575 0.000008 0.000000 -16.867300 -393.207324 25.982682 -29.905710
46.090515 27.430397 24.723587 1070.765696 26.819861 -25.045691 -0.637402 0.831598 5.390103 21.540583 1.135448 -4.322370 -0.000003 -0.000003 4.429903 -22.907872 -3.677607 -1.901595 -0.000003 0.000002 10.301396 320.288471 6.484230 6.664886 0.000000 -0.000005 2.173896 -360.791301 -0.765425 -3.420554 2.142396 -0.572700 5.717807 -13.913098 0.809220 -1.786829 5.673991 0.000006 0.000004 95.244522 -137.807208 121.734803 0.000002 -0.000001 -12.238699 -626.534345 27.488957 -296.648394 -0.000000 0.000003 -10.253693 697.363243 -176.157955 181.161438 -2.882609 -1.580096 6.695805 27.537656 16.656079 -0.557114 -4.235607 -0.000006 -0.000004 -123.936651 197.056121 -128.932757 0.000000 -0.000006 -10.709904 131.149153 -144.548769 121.616272 0.000008 0.000006 -11.716799 1.979341 7.218024 28.963957 2.279495 0.210405 -2.475496 520.055029 -4.080489 83.895487 -0.000008 -0.000007 -20.742805 -175.053118 -16.947371 92.167686 -0.000003 0.000005 -16.665998 67.541084 20.199024 50.326067 -1.961889 0.232300 -2.727401 -895.603856 -5.189209 -133.102915 0.000008 -0.000000 -20.526798 1064.498533 162.398389 -288.955551 0.000006 0.000001 -16.867298 -393.186861 25.851545 -29.935162
45.930702 27.503590 24.723686 1070.719142 27.087495 -25.375246 -0.637398 0.831598 5.390098 21.936857 1.179151 -4.570792 -0.000005 0.000009 4.429895 -23.248275 -3.727726 -1.941006 -0.000007 0.000004 10.301407 319.451581 6.263245 6.905822 -0.000001 0.000004 2.173900 -359.951898 -0.938812 -3.828601 2.142396 -0.572701 5.717807 -13.611911 0.852985 -2.808497 5.673998 0.000007 -0.000006 91.871522 -138.305361 118.066636 -0.000001 -0.000001 -12.238701 -624.567633 29.600848 -298.868751 0.000004 0.000003 -10.253701 694.964863 -176.181123 180.869242 -2.882608 -1.580098 6.695799 27.457777 16.704336 -0.444720 -4.235607 -0.000001 0.000000 -123.845454 196.818513 -128.313136 -0.000006 0.000003 -10.709898 130.827902 -145.048465 121.327956 0.000008 0.000002 -11.716805 2.257437 7.163122 28.771380 2.279494 0.210404 -2.475502 520.114425 -4.218452 83.494404 -0.000006 0.000003 -20.742807 -174.730951 -16.471891 91.768311 -0.000006 -0.000001 -16.665998 67.109689 20.199545 50.220236 -1.961893 0.232295 -2.727406 -895.607626 -5.188041 -133.483302 0.000004 -0.000012 -20.526806 1064.158335 162.351588 -289.228486 0.000002 0.000004 -16.867298 -393.205904 25.769038 -29.881084
45.777115 27.569595 24.731695 1070.621115 27.353627 -25.700842 -0.637410 0.831601 5.390096 22.394138 1.187522 -4.862226 -0.000009 0.000000 4.429904 -23.626645 -3.836501 -2.000715 -0.000003 -0.000005 10.301402 319.585945 6.099983 6.521642 -0.000001 -0.000001 2.173893 -360.153744 -0.994786 -3.748407 2.142402 -0.572698 5.717796 -13.446047 1.509217 -3.374206 5.673994 0.000008 -0.000004 87.879905 -139.936670 113.038401 0.000000 0.000004 -12.238701 -621.797254 32.270629 -301.532088 0.000004 -0.000002 -10.253699 691.840134 -176.190248 180.561037 -2.882603 -1.580095 6.695799 28.896109 18.128692 -1.431325 -4.235611 0.000004 0.000001 -124.449585 196.437866 -125.906778 0.000002 0.000002 -10.709902 130.013429 -145.593487 121.096918 -0.000000 0.000006 -11.716808 2.352065 6.931241 28.364801 2.279493 0.210403 -2.475507 520.211086 -4.387148 83.041037 -0.000001 -0.000010 -20.742805 -174.372134 -15.981584 91.367420 -0.000003 -0.000004 -16.666002 66.660440 20.195956 50.071734 -1.961905 0.232290 -2.727407 -895.616478 -5.253148 -133.868525 0.000009 -0.000007 -20.526798 1063.739235 162.307862 -289.461887 0.000004 0.000009 -16.867302 -393.265026 25.742529 -29.727958
45.629913 27.627893 24.749386 1070.470086 27.634949 -26.030986 -0.637404 0.831605 5.390099 22.926181 1.146499 -5.202212 0.000001 0.000001 4.429892 -24.086747 -3.971465 -2.080689 0.000002 0.000009 10.301399 319.722685 5.894006 6.089481 -0.000001 0.000005 2.173894 -360.391025 -1.004456 -3.634753 2.142400 -0.572700 5.717800 -13.769656 2.537688 -3.555026 5.673999 0.000003 0.000000 84.393817 -142.542933 107.460247 0.000002 0.000000 -12.238699 -618.351451 35.378314 -304.562588 0.000007 -0.000001 -10.253699 688.136696 -176.167326 180.391880 -2.882599 -1.580095 6.695803 29.565454 19.680290 -2.675662 -4.235613 -0.000001 0.000000 -124.083432 195.522853 -123.052592 0.000010 0.000005 -10.709900 129.168494 -145.961621 121.097997 0.000005 0.000012 -11.716806 2.327139 6.871706 28.136355 2.279495 0.210412 -2.475499 520.361787 -4.523390 82.532174 -0.000006 0.000002 -20.742802 -174.022415 -15.522795 90.968154 -0.000005 -0.000001 -16.666000 66.228485 20.194895 49.932334 -1.961899 0.232295 -2.727405 -895.607626 -5.367832 -134.261671 0.000007 0.000003 -20.526802 1063.280683 162.264490 -289.661493 -0.000004 0.000002 -16.867302 -393.309121 25.690425 -29.609840
